<?xml version="1.0" encoding="iso-8859-1"?>
<!-- Generator: Adobe Illustrator 19.0.0, SVG Export Plug-In . SVG Version: 6.00 Build 0)  -->
<svg version="1.1" id="Capa_1" xmlns="http://www.w3.org/2000/svg" xmlns:xlink="http://www.w3.org/1999/xlink" x="0px" y="0px"
	 viewBox="0 0 512 512" style="enable-background:new 0 0 512 512;" xml:space="preserve">
<g>
	<g>
		<path d="M425.835,145.227c-0.544-1.301-1.323-2.464-2.304-3.445L284.875,3.125C282.88,1.12,280.16,0,277.333,0h-224
			C23.925,0,0,23.925,0,53.333v405.333C0,500.853,34.891,512,53.333,512h181.333c5.888,0,10.667-4.768,10.667-10.667
			s-4.779-10.667-10.667-10.667H53.387c-5.355-0.064-32.053-1.888-32.053-32V53.333c0-17.643,14.357-32,32-32h219.584
			l117.333,117.333H320c-17.643,0-32-14.357-32-32v-32C288,68.768,283.221,64,277.333,64s-10.667,4.768-10.667,10.667v32
			C266.667,136.075,290.592,160,320,160h85.333v21.333c0,5.899,4.779,10.667,10.667,10.667c5.888,0,10.667-4.768,10.667-10.667v-32
			C426.667,147.904,426.379,146.517,425.835,145.227z"/>
	</g>
</g>
<g>
	<g>
		<path d="M362.667,213.333c-82.347,0-149.333,66.987-149.333,149.333S280.32,512,362.667,512S512,445.013,512,362.667
			S445.013,213.333,362.667,213.333z M362.667,490.667c-70.581,0-128-57.419-128-128s57.419-128,128-128s128,57.419,128,128
			S433.248,490.667,362.667,490.667z"/>
	</g>
</g>
<g>
	<g>
		<path d="M444.875,301.792c-4.171-4.171-10.912-4.171-15.083,0l-99.125,99.125l-24.459-24.459c-4.171-4.171-10.912-4.171-15.083,0
			s-4.171,10.912,0,15.083l32,32c2.08,2.08,4.811,3.125,7.541,3.125s5.461-1.045,7.541-3.125l106.667-106.667
			C449.045,312.704,449.045,305.963,444.875,301.792z"/>
	</g>
</g>
<g>
</g>
<g>
</g>
<g>
</g>
<g>
</g>
<g>
</g>
<g>
</g>
<g>
</g>
<g>
</g>
<g>
</g>
<g>
</g>
<g>
</g>
<g>
</g>
<g>
</g>
<g>
</g>
<g>
</g>
</svg>
