<?xml version="1.0" encoding="UTF-8"?>
<svg id="Layer_1" data-name="Layer 1" xmlns="http://www.w3.org/2000/svg" xmlns:xlink="http://www.w3.org/1999/xlink" viewBox="0 0 1500 1000">
  <defs>
    <style>
      .cls-1, .cls-2 {
        fill: #fff;
      }

      .cls-3 {
        fill: url(#linear-gradient);
      }

      .cls-3, .cls-4, .cls-5, .cls-2, .cls-6, .cls-7, .cls-8, .cls-9 {
        stroke-width: 0px;
      }

      .cls-10 {
        clip-path: url(#clippath-2);
      }

      .cls-4 {
        fill: #022ae9;
      }

      .cls-5 {
        fill: none;
      }

      .cls-11 {
        clip-path: url(#clippath-1);
      }

      .cls-12 {
        clip-path: url(#clippath-4);
      }

      .cls-6 {
        fill: url(#linear-gradient-2);
      }

      .cls-7 {
        fill: url(#linear-gradient-3);
      }

      .cls-13 {
        clip-path: url(#clippath);
      }

      .cls-8 {
        fill: #00183f;
      }

      .cls-14 {
        clip-path: url(#clippath-3);
      }

      .cls-9 {
        fill: url(#linear-gradient-4);
      }
    </style>
    <clipPath id="clippath">
      <path class="cls-5" d="m390.42,467.32v9.43c7.43,5.06,12.31,13.58,12.31,23.25s-4.88,18.19-12.31,23.25v9.43c0,1.65,1.41,2.99,3.05,2.83,18.1-1.73,32.25-16.96,32.25-35.51s-14.15-33.78-32.25-35.51c-.09,0-.18-.01-.27-.01-1.52,0-2.78,1.28-2.78,2.84"/>
    </clipPath>
    <linearGradient id="linear-gradient" x1="0" y1="999.87" x2="1" y2="999.87" gradientTransform="translate(374.42 54043.39) scale(53.55 -53.55)" gradientUnits="userSpaceOnUse">
      <stop offset="0" stop-color="#18c3ff"/>
      <stop offset="1" stop-color="#1846ef"/>
      <stop offset="1" stop-color="#1846ef"/>
    </linearGradient>
    <clipPath id="clippath-1">
      <path class="cls-5" d="m374.91,474.92v9.39c5.38,3.15,9,9,9,15.69s-3.62,12.54-9,15.69v9.39c0,1.72,1.52,3.03,3.22,2.82,4.51-.57,8.7-2.2,12.29-4.65v-46.5c-3.59-2.45-7.78-4.08-12.29-4.65-.12-.01-.24-.02-.36-.02-1.55,0-2.86,1.24-2.86,2.84"/>
    </clipPath>
    <linearGradient id="linear-gradient-2" x1="0" y1="999.96" x2="1" y2="999.96" gradientTransform="translate(362.12 36755.12) scale(36.26 -36.26)" gradientUnits="userSpaceOnUse">
      <stop offset="0" stop-color="#18c3ff"/>
      <stop offset="1" stop-color="#1846ef"/>
      <stop offset="1" stop-color="#1846ef"/>
    </linearGradient>
    <clipPath id="clippath-2">
      <path class="cls-5" d="m365.92,484.96v30.08c0,1.81,1.66,3.14,3.43,2.78,1.99-.4,3.86-1.13,5.56-2.13v-31.38c-1.7-1-3.57-1.73-5.56-2.13-.2-.04-.39-.06-.58-.06-1.54,0-2.85,1.23-2.85,2.84"/>
    </clipPath>
    <linearGradient id="linear-gradient-3" x1="0" y1="999.99" x2="1" y2="999.99" gradientTransform="translate(350.79 32416.54) scale(31.92 -31.92)" gradientUnits="userSpaceOnUse">
      <stop offset="0" stop-color="#18c3ff"/>
      <stop offset="1" stop-color="#1846ef"/>
      <stop offset="1" stop-color="#1846ef"/>
    </linearGradient>
    <clipPath id="clippath-3">
      <path class="cls-5" d="m-398.97-127.06V-43.5c65.84,44.84,109.08,120.33,109.08,206.02s-43.24,161.18-109.08,206.02v83.56c0,14.62,12.49,26.49,27.03,25.08,160.38-15.33,285.76-150.28,285.76-314.65S-211.57-136.81-371.95-152.14c-.8-.08-1.58-.12-2.37-.12-13.5,0-24.66,11.37-24.66,25.19"/>
    </clipPath>
    <linearGradient id="linear-gradient-4" x1="-9.25" y1="1012.86" x2="-.38" y2="1012.86" gradientTransform="translate(-45.64 54401.95) scale(53.55 -53.55)" xlink:href="#linear-gradient"/>
    <clipPath id="clippath-4">
      <path class="cls-2" d="m-398.97,591.24v83.56c65.84,44.84,109.08,120.33,109.08,206.02s-43.24,161.18-109.08,206.02v83.56c0,14.62,12.49,26.49,27.03,25.08,160.38-15.33,285.76-150.28,285.76-314.65s-125.38-299.32-285.76-314.65c-.8-.08-1.58-.12-2.37-.12-13.5,0-24.66,11.37-24.66,25.19"/>
    </clipPath>
  </defs>
  <g>
    <g>
      <path class="cls-8" d="m457.68,471.71h-23.96v59.89h23.96c16.51,0,29.09-13.01,29.09-29.95s-12.58-29.95-29.09-29.95m0,46.72h-10.27v-33.54h10.27c9.41,0,15.91,6.5,15.91,16.77s-6.5,16.77-15.91,16.77"/>
      <path class="cls-8" d="m498.75,469.66c-4.19,0-7.7,3.51-7.7,7.7s3.51,7.7,7.7,7.7,7.7-3.51,7.7-7.7-3.51-7.7-7.7-7.7"/>
      <rect class="cls-8" x="492.33" y="488.82" width="12.83" height="42.78"/>
      <path class="cls-8" d="m524.59,501.32c0-1.54,1.37-2.4,3.59-2.4,2.82,0,4.53,1.54,5.73,3.76l10.95-5.9c-3.59-6.07-9.75-9.15-16.68-9.15-8.9,0-16.77,4.71-16.77,14.03,0,14.8,21.05,12.32,21.05,17.03,0,1.71-1.54,2.65-4.62,2.65-3.77,0-6.16-1.8-7.27-5.05l-11.12,6.33c3.34,6.93,9.84,10.18,18.4,10.18,9.24,0,17.8-4.19,17.8-14.03,0-15.83-21.05-12.58-21.05-17.45"/>
      <path class="cls-8" d="m562.95,476.85l-12.83,3.85v35.59c0,11.98,4.88,17.03,21.65,15.32v-11.64c-5.65.34-8.81,0-8.81-3.68v-15.14h8.81v-12.32h-8.81v-11.98Z"/>
      <path class="cls-8" d="m591.01,496.44v-7.61h-12.83v42.78h12.83v-19.34c0-8.47,7.53-10.61,12.83-9.75v-14.55c-5.39,0-11.12,2.74-12.83,8.47"/>
      <path class="cls-8" d="m614.54,469.66c-4.19,0-7.7,3.51-7.7,7.7s3.51,7.7,7.7,7.7,7.7-3.51,7.7-7.7-3.51-7.7-7.7-7.7"/>
      <rect class="cls-8" x="608.12" y="488.82" width="12.83" height="42.78"/>
      <path class="cls-8" d="m654.24,487.63c-5.73,0-9.92,1.97-12.75,5.22v-21.13h-12.83v59.89h12.83v-4.02c2.83,3.25,7.02,5.22,12.75,5.22,11.21,0,20.45-9.84,20.45-22.59s-9.24-22.59-20.45-22.59m-2.57,33.03c-5.9,0-10.18-4.02-10.18-10.44s4.28-10.44,10.18-10.44,10.18,4.02,10.18,10.44-4.28,10.44-10.18,10.44"/>
      <path class="cls-8" d="m707.88,512.18c0,6.08-3.25,8.81-7.96,8.81-4.11,0-7.44-2.48-7.44-7.79v-24.39h-12.84v26.27c0,11.55,7.36,17.71,16,17.71,5.65,0,9.93-2.05,12.24-5.22v4.02h12.83v-42.78h-12.83v23.36Z"/>
      <path class="cls-8" d="m739.94,476.85l-12.83,3.85v35.59c0,11.98,4.88,17.03,21.65,15.32v-11.64c-5.65.34-8.81,0-8.81-3.68v-15.14h8.81v-12.32h-8.81v-11.98Z"/>
      <path class="cls-8" d="m774.07,487.63c-13.52,0-22.76,9.84-22.76,22.59s9.07,22.59,23.7,22.59c8.13,0,14.46-2.99,18.65-8.81l-10.27-5.9c-1.71,1.88-4.7,3.25-8.21,3.25-4.71,0-8.64-1.54-10.27-5.99h30.38c.34-1.63.51-3.34.51-5.13,0-12.92-9.24-22.59-21.73-22.59m-9.41,18.14c1.2-4.36,4.45-6.76,9.33-6.76,3.85,0,7.7,1.8,9.07,6.76h-18.4Z"/>
      <path class="cls-8" d="m832,492.85c-2.83-3.25-7.02-5.22-12.75-5.22-11.21,0-20.45,9.84-20.45,22.59s9.24,22.59,20.45,22.59c5.73,0,9.92-1.97,12.75-5.22v4.02h12.83v-59.89h-12.83v21.13Zm-10.18,27.81c-5.9,0-10.18-4.02-10.18-10.44s4.28-10.44,10.18-10.44,10.18,4.02,10.18,10.44-4.28,10.44-10.18,10.44"/>
      <polygon class="cls-8" points="909.68 523.48 894.11 471.71 887.1 471.71 871.52 523.48 856.72 471.71 850.39 471.71 867.76 531.6 874.95 531.6 890.6 479.58 906.26 531.6 913.45 531.6 930.82 471.71 924.49 471.71 909.68 523.48"/>
      <rect class="cls-8" x="935.95" y="488.82" width="5.65" height="42.78"/>
      <path class="cls-8" d="m938.77,471.54c-2.31,0-4.11,1.88-4.11,4.11s1.8,4.11,4.11,4.11,4.11-1.88,4.11-4.11-1.8-4.11-4.11-4.11"/>
      <path class="cls-8" d="m957.49,476.85l-5.65,1.71v41.67c0,10.27,6.42,13.09,17.97,11.38v-4.96c-8.3.34-12.32.94-12.32-6.42v-25.92h12.32v-5.48h-12.32v-11.98Z"/>
      <path class="cls-8" d="m997.53,487.8c-6.07,0-11.04,2.31-14.37,7.7v-6.67h-5.65v42.78h5.65v-22.42c0-11.47,6.33-15.91,13.86-15.91s11.64,4.45,11.64,12.06v26.27h5.65v-26.27c0-10.7-6.33-17.54-16.77-17.54"/>
      <path class="cls-8" d="m1043.3,487.8c-13.26,0-22.33,9.84-22.33,22.42s9.24,22.42,22.76,22.42c8.64,0,15.23-4.02,18.82-9.84l-4.96-2.91c-2.31,4.11-7.02,7.27-13.77,7.27-9.07,0-15.83-5.39-17.03-14.12h37.56c.08-.86.17-1.8.17-2.65,0-11.72-8.13-22.59-21.22-22.59m-16.51,19.76c1.11-8.39,7.53-14.29,16.51-14.29,7.36,0,14.2,4.88,15.4,14.29h-31.92Z"/>
      <path class="cls-8" d="m1074.53,500.03c0-4.62,4.53-6.76,8.98-6.76,4.11,0,8.47,1.63,10.27,5.99l4.71-2.74c-2.48-5.3-7.96-8.73-14.97-8.73-8.56,0-14.63,5.39-14.63,12.24,0,15.74,24.98,9.67,24.98,20.28,0,5.05-4.79,6.84-9.84,6.84-5.73,0-10.18-2.82-11.72-7.19l-4.79,2.82c2.14,5.48,7.96,9.84,16.51,9.84,9.16,0,15.49-5.05,15.49-12.32,0-15.74-24.98-9.67-24.98-20.28"/>
      <path class="cls-8" d="m1109.09,500.03c0-4.62,4.53-6.76,8.98-6.76,4.11,0,8.47,1.63,10.27,5.99l4.71-2.74c-2.48-5.3-7.96-8.73-14.97-8.73-8.56,0-14.63,5.39-14.63,12.24,0,15.74,24.98,9.67,24.98,20.28,0,5.05-4.79,6.84-9.84,6.84-5.73,0-10.18-2.82-11.72-7.19l-4.79,2.82c2.14,5.48,7.96,9.84,16.51,9.84,9.16,0,15.49-5.05,15.49-12.32,0-15.74-24.98-9.67-24.98-20.28"/>
    </g>
    <g>
      <g class="cls-13">
        <rect class="cls-3" x="370.59" y="462.27" width="74.98" height="75.61" transform="translate(-233.22 426.97) rotate(-44.28)"/>
      </g>
      <path class="cls-4" d="m402.73,500c0,9.67-4.88,18.19-12.31,23.25v-46.5c7.43,5.06,12.31,13.58,12.31,23.25"/>
      <g class="cls-11">
        <rect class="cls-6" x="358.91" y="473.51" width="47.52" height="53.17" transform="translate(-230.31 355.91) rotate(-39.34)"/>
      </g>
      <path class="cls-4" d="m383.91,500c0,6.69-3.62,12.54-9,15.69v-31.38c5.38,3.15,9,9,9,15.69"/>
      <g class="cls-10">
        <rect class="cls-7" x="353.6" y="485.28" width="33.64" height="29.73" transform="translate(-251.32 471.81) rotate(-50.87)"/>
      </g>
    </g>
  </g>
  <g class="cls-14">
    <rect class="cls-9" x="-574.76" y="-171.84" width="664.37" height="670.01" transform="translate(-182.83 -123.01) rotate(-44.28)"/>
  </g>
  <g>
    <path class="cls-1" d="m-398.97,591.24v83.56c65.84,44.84,109.08,120.33,109.08,206.02s-43.24,161.18-109.08,206.02v83.56c0,14.62,12.49,26.49,27.03,25.08,160.38-15.33,285.76-150.28,285.76-314.65s-125.38-299.32-285.76-314.65c-.8-.08-1.58-.12-2.37-.12-13.5,0-24.66,11.37-24.66,25.19"/>
    <g class="cls-12">
      <rect class="cls-2" x="-574.76" y="546.46" width="664.37" height="670.01" transform="translate(-684.33 81.04) rotate(-44.28)"/>
    </g>
  </g>
</svg>