<svg id="Layer_2" enable-background="new 0 0 512 512" viewBox="0 0 512 512" xmlns="http://www.w3.org/2000/svg"><g><g style="fill:none;stroke:#474747;stroke-linecap:round;stroke-linejoin:round;stroke-miterlimit:10;stroke-width:15"><g><path d="m338.996 113.734c12.843 15.07 28.093 41.172 19.714 71.894 0 0-9.136 22.839-7.994 33.117.365 3.288 3.887 8.681 8.471 14.644"/><path d="m223.957 360.35c11.717 2.79 35.262 7.215 59.759 10.746"/><path d="m242.614 417.458s-2.663 12.114-5.332 23.625"/><path d="m109.276 382.581 10.761-47.355s-95.926-73.086-71.944-185c1.62-7.558 3.746-14.862 6.323-21.887 0 0 38.286-121.313 176.939-107.81 94.556 9.208 142.95 67.998 157.256 125.223"/></g><path d="m316.288 88.465s9.17 108.005-102.91 133.477"/></g><g><g><path d="m370.576 377.754c18.452 14.746 35.928 17.469 35.928 17.469s3.378-29.09 5.477-33.405 27.962 5.596 31.139 1.806-12.861-47.612-9.217-57.846 22.77-27.613 22.77-27.613c22.033-25.173 22.831-49.324 14.412-76.978-4.489-14.745-22.383-44.442-22.383-44.442l-179.587 240.974c20.032 16.414 74.061 50.699 81.584 51.689 7.522.991 17.959-25.951 20.058-30.266s14.39-3.499 14.39-3.499" style="fill:none;stroke:#474747;stroke-linecap:round;stroke-linejoin:round;stroke-miterlimit:10;stroke-width:15"/></g></g><g style="fill:none;stroke:#474747;stroke-linecap:round;stroke-linejoin:round;stroke-miterlimit:10;stroke-width:15"><path d="m260.296 492.52-10.502-43.085-155.34-72.729-24.288 31.756 119.428 64.725"/><path d="m70.166 408.462-36.891 40.973"/><path d="m189.196 273.714c-15.325 1.57-29.022-9.581-30.591-24.907l-1.741-16.996c-1.57-15.325 9.581-29.022 24.907-30.591 15.325-1.57 29.022 9.581 30.591 24.907"/></g></g></svg>